<svg width="17" height="17" viewBox="0 0 17 17" fill="none" xmlns="http://www.w3.org/2000/svg">
<path fill-rule="evenodd" clip-rule="evenodd" d="M8.33333 15C12.0153 15 15 12.0153 15 8.33333C15 4.65143 12.0153 1.66667 8.33333 1.66667C4.65143 1.66667 1.66667 4.65143 1.66667 8.33333C1.66667 12.0153 4.65143 15 8.33333 15ZM8.33333 16.6667C12.9357 16.6667 16.6667 12.9357 16.6667 8.33333C16.6667 3.73096 12.9357 0 8.33333 0C3.73096 0 0 3.73096 0 8.33333C0 12.9357 3.73096 16.6667 8.33333 16.6667Z" fill="#777E91"/>
<path d="M8.33333 6.66667C8.33333 6.20643 8.70642 5.83333 9.16667 5.83333H10C10.4602 5.83333 10.8333 5.46024 10.8333 5C10.8333 4.53977 10.4602 4.16667 10 4.16667H9.16667C7.78592 4.16667 6.66667 5.28596 6.66667 6.66667V8.33333H5.83333C5.3731 8.33333 5 8.70642 5 9.16667C5 9.62692 5.37309 10 5.83333 10H6.66667V15C6.66667 15.4602 7.03975 15.8333 7.5 15.8333C7.96025 15.8333 8.33333 15.4603 8.33333 15L8.33333 10H10C10.4602 10 10.8333 9.62692 10.8333 9.16667C10.8333 8.70642 10.4602 8.33333 10 8.33333H8.33333V6.66667Z" fill="#777E91"/>
</svg>
