<svg width="18" height="17" viewBox="0 0 18 17" fill="none" xmlns="http://www.w3.org/2000/svg">
<path fill-rule="evenodd" clip-rule="evenodd" d="M12.5368 1.66667H5.87012C4.02917 1.66667 2.53678 3.15905 2.53678 5V11.6667C2.53678 13.5076 4.02917 15 5.87012 15H12.5368C14.3777 15 15.8701 13.5076 15.8701 11.6667V5C15.8701 3.15905 14.3777 1.66667 12.5368 1.66667ZM5.87012 0C3.10869 0 0.870117 2.23857 0.870117 5V11.6667C0.870117 14.4281 3.10869 16.6667 5.87012 16.6667H12.5368C15.2982 16.6667 17.5368 14.4281 17.5368 11.6667V5C17.5368 2.23857 15.2982 0 12.5368 0H5.87012Z" fill="#777E91"/>
<path d="M13.3701 5C13.8304 5 14.2035 4.6269 14.2035 4.16667C14.2035 3.70643 13.8304 3.33333 13.3701 3.33333C12.9099 3.33333 12.5368 3.70643 12.5368 4.16667C12.5368 4.6269 12.9099 5 13.3701 5Z" fill="#777E91"/>
<path fill-rule="evenodd" clip-rule="evenodd" d="M13.3701 8.33333C13.3701 10.6345 11.5046 12.5 9.20345 12.5C6.90227 12.5 5.03678 10.6345 5.03678 8.33333C5.03678 6.03215 6.90227 4.16667 9.20345 4.16667C11.5046 4.16667 13.3701 6.03215 13.3701 8.33333ZM11.7035 8.33333C11.7035 9.71408 10.5842 10.8333 9.20345 10.8333C7.8227 10.8333 6.70345 9.71408 6.70345 8.33333C6.70345 6.95258 7.8227 5.83333 9.20345 5.83333C10.5842 5.83333 11.7035 6.95258 11.7035 8.33333Z" fill="#777E91"/>
</svg>
