<svg width="177" height="45" viewBox="0 0 177 45" fill="none" xmlns="http://www.w3.org/2000/svg">
<path d="M43.7746 0.881226V14.9782L27.9831 30.7778V39.0084L22.5364 44.4552L18.7196 40.6384V35.3369L29.25 24.8065V15.4059H19.8493L9.31893 25.9362H4.01744L0.200684 22.1195L5.64743 16.6727H13.8781L29.6776 0.881226H43.7746Z" fill="#0A0A0A"/>
<path d="M8.22149 40.0655C10.2269 40.0655 11.8527 38.4398 11.8527 36.4344C11.8527 34.4289 10.2269 32.8032 8.22149 32.8032C6.21606 32.8032 4.59033 34.4289 4.59033 36.4344C4.59033 38.4398 6.21606 40.0655 8.22149 40.0655Z" fill="#0A0A0A"/>
<path d="M43.7744 27.0256H58.4734C62.4337 27.0256 63.9637 28.0714 63.9637 30.986V32.4191C63.9637 34.4623 63.1697 35.2079 62.0755 35.508C63.3246 35.7598 64.1961 36.5538 64.1961 39.1392V40.6691C64.1961 43.4288 62.6855 44.4552 58.7251 44.4552H43.7744V27.0256ZM47.6573 30.192V34.2008H58.5411C59.8968 34.2008 60.3325 33.8135 60.3325 32.6709V31.5767C60.3325 30.5309 59.7999 30.192 58.1635 30.192H47.6573ZM47.6573 37.0186V41.2888H58.5218C59.9742 41.2888 60.5649 40.9596 60.5649 39.8848V38.81C60.5649 37.3769 60.0517 37.0186 58.6477 37.0186H47.6573Z" fill="#0A0A0A"/>
<path d="M67.8275 44.4553C66.772 44.4553 66.375 44.0873 66.375 43.1771V40.8435C66.375 39.9623 66.772 39.5653 67.8275 39.5653H69.2218C70.3063 39.5653 70.7033 39.9623 70.7033 40.8435V43.1771C70.7033 44.0873 70.3063 44.4553 69.2218 44.4553H67.8275Z" fill="#0A0A0A"/>
<path d="M91.483 40.5336H79.6793L77.2488 44.4552H72.8721L82.7779 28.7008C83.3782 27.7228 84.1045 27.0256 85.6538 27.0256C87.174 27.0256 87.9002 27.7228 88.5006 28.7008L98.358 44.4552H93.9522L91.483 40.5336ZM81.4513 37.5996H89.7013L85.5763 30.8698L81.4513 37.5996Z" fill="#0A0A0A"/>
<path d="M114.423 44.5037L104.42 38.2871V44.5037H100.634V27.4033H114.026C118.819 27.4033 120.775 28.4297 120.775 32.545V33.7264C120.775 37.6868 118.644 38.7132 113.977 38.7132H110.966L120.997 44.5037H114.423ZM116.95 32.7484C116.95 30.9183 116.272 30.6181 113.764 30.6181H104.41V35.8373H113.764C116.224 35.8373 116.95 35.5371 116.95 33.678V32.7484Z" fill="#0A0A0A"/>
<path d="M146.851 44.5036V33.2422L138.505 44.155C138.098 44.6586 137.575 44.8813 136.82 44.8813C136.064 44.8813 135.542 44.6586 135.135 44.155L126.807 33.2422V44.5036H123.351V28.5846C123.351 27.5098 124.232 27.0256 125.403 27.0256C126.304 27.0256 126.778 27.2483 127.214 27.8293L136.868 40.6401L146.6 27.8293C147.026 27.2774 147.432 27.0256 148.304 27.0256C149.456 27.0256 150.357 27.5001 150.357 28.5846V44.5133H146.851V44.5036Z" fill="#0A0A0A"/>
<path d="M162.567 44.5037V36.428L152.535 27.4033H157.677L164.571 33.494L171.591 27.4033H176.452L166.372 36.4861V44.5134H162.567V44.5037Z" fill="#0A0A0A"/>
</svg>
