<svg width="19" height="15" viewBox="0 0 19 15" fill="none" xmlns="http://www.w3.org/2000/svg">
<path fill-rule="evenodd" clip-rule="evenodd" d="M2.41745 9.1665C1.03935 9.17042 0.149753 10.7403 0.998751 11.9298C2.2146 13.633 4.41939 15 8.10024 15C13.8045 15 18.3833 10.3514 17.7423 4.85925L18.6814 2.98108C19.3327 1.67857 18.201 0.19685 16.773 0.48245L15.5323 0.730575C15.2034 0.557025 14.863 0.426058 14.5721 0.331175C14.0051 0.146267 13.3188 0 12.6836 0C11.5425 0 10.5577 0.292758 9.77499 0.879942C9.00124 1.46053 8.56541 2.22354 8.32624 2.92421C8.21599 3.24717 8.14258 3.57112 8.09547 3.88203C7.65274 3.74269 7.20132 3.55522 6.75937 3.32629C5.7567 2.80693 4.94591 2.14852 4.48853 1.57126C3.72118 0.60275 2.09498 0.674558 1.52433 1.93351C0.720042 3.70789 0.940667 5.81122 1.66362 7.51075C1.90593 8.08033 2.22114 8.64342 2.60623 9.16525C2.54031 9.166 2.47724 9.16633 2.41745 9.1665ZM8.10016 13.3333C4.88071 13.3333 3.21598 12.1672 2.35519 10.9614C2.31652 10.9072 2.35552 10.8333 2.42208 10.8332C3.29778 10.8307 5.09528 10.7892 6.28078 10.0954C6.34208 10.0595 6.32859 9.96908 6.26126 9.9465C3.49778 9.01733 1.92693 5.08216 3.04224 2.62158C3.06782 2.56517 3.14365 2.55773 3.18213 2.60628C4.45618 4.21432 7.24185 5.78933 9.66549 5.83242C9.71808 5.83333 9.75783 5.78558 9.74983 5.73361C9.65216 5.10044 9.27924 1.66667 12.6835 1.66667C13.4964 1.66667 14.7059 2.06319 15.1514 2.46942C15.172 2.48819 15.1999 2.49672 15.2272 2.49125L17.0997 2.11675C17.1677 2.10315 17.2217 2.17371 17.1907 2.23573L16.0292 4.55849C16.0212 4.57462 16.0187 4.59312 16.0217 4.61088C16.8352 9.18333 13.0902 13.3333 8.10016 13.3333Z" fill="#777E91"/>
</svg>
